HIERARCHY
ROOT SpineBase
{
  OFFSET 0.000000 0.000000 0.000000
  CHANNELS 6 Xposition Yposition Zposition Zrotation Xrotation Yrotation
  JOINT SpineMid
  {
    OFFSET -0.000000 31.825949 0.000000
    CHANNELS 3 Zrotation Xrotation Yrotation
    JOINT SpineShoulder
    {
      OFFSET -0.213726 23.847834 -0.811178
      CHANNELS 3 Zrotation Xrotation Yrotation
      JOINT Neck
      {
        OFFSET -0.164222 7.934771 -0.632928
        CHANNELS 3 Zrotation Xrotation Yrotation
        JOINT Head
        {
          OFFSET -5.143613 11.974353 5.443991
          CHANNELS 3 Zrotation Xrotation Yrotation
          End Site
          {
            OFFSET 0 0 0
          }
        }
      }
      JOINT ShoulderLeft
      {
        OFFSET -6.529321 -6.289341 12.825669
        CHANNELS 3 Zrotation Xrotation Yrotation
        JOINT ElbowLeft
        {
          OFFSET -4.029406 -22.641822 1.157589
          CHANNELS 3 Zrotation Xrotation Yrotation
          JOINT WristLeft
          {
            OFFSET -13.839214 -8.528057 -17.988530
            CHANNELS 3 Zrotation Xrotation Yrotation
            JOINT HandLeft
            {
              OFFSET -4.513108 -2.928617 -5.564117
              CHANNELS 3 Zrotation Xrotation Yrotation
              JOINT HandTipLeft
              {
                OFFSET 0.279287 2.385624 0.617342
                CHANNELS 3 Zrotation Xrotation Yrotation
                End Site
                {
                  OFFSET 0 0 0
                }
              }
              JOINT ThumbLeft
              {
                OFFSET -0.815230 -0.081760 -3.305027
                CHANNELS 3 Zrotation Xrotation Yrotation
                End Site
                {
                  OFFSET 0 0 0
                }
              }
            }
          }
        }
      }
      JOINT ShoulderRight
      {
        OFFSET 3.231050 -3.435685 -14.575691
        CHANNELS 3 Zrotation Xrotation Yrotation
        JOINT ElbowRight
        {
          OFFSET -10.911558 -20.792364 -4.058829
          CHANNELS 3 Zrotation Xrotation Yrotation
          JOINT WristRight
          {
            OFFSET -1.008445 -20.290897 9.544596
            CHANNELS 3 Zrotation Xrotation Yrotation
            JOINT HandRight
            {
              OFFSET 1.513833 -6.280465 1.045463
              CHANNELS 3 Zrotation Xrotation Yrotation
              JOINT HandTipRight
              {
                OFFSET -2.111618 -8.358394 3.853526
                CHANNELS 3 Zrotation Xrotation Yrotation
                End Site
                {
                  OFFSET 0 0 0
                }
              }
              JOINT ThumbRight
              {
                OFFSET -3.835932 5.985955 5.780202
                CHANNELS 3 Zrotation Xrotation Yrotation
                End Site
                {
                  OFFSET 0 0 0
                }
              }
            }
          }
        }
      }
    }
  }
  JOINT HipLeft
  {
    OFFSET -3.721583 -0.411237 4.840406
    CHANNELS 3 Zrotation Xrotation Yrotation
    JOINT KneeLeft
    {
      OFFSET -1.462735 -31.265395 1.598465
      CHANNELS 3 Zrotation Xrotation Yrotation
      JOINT AnkleLeft
      {
        OFFSET 16.487055 -40.928422 1.128522
        CHANNELS 3 Zrotation Xrotation Yrotation
        JOINT FootLeft
        {
          OFFSET 0.499446 -7.617726 -8.785328
          CHANNELS 3 Zrotation Xrotation Yrotation
          End Site
          {
            OFFSET 0 0 0
          }
        }
      }
    }
  }
  JOINT HipRight
  {
    OFFSET 1.575638 2.545405 -12.454119
    CHANNELS 3 Zrotation Xrotation Yrotation
    JOINT KneeRight
    {
      OFFSET 5.000737 -38.149455 1.317647
      CHANNELS 3 Zrotation Xrotation Yrotation
      JOINT AnkleRight
      {
        OFFSET 8.399202 -40.183907 5.121672
        CHANNELS 3 Zrotation Xrotation Yrotation
        JOINT FootRight
        {
          OFFSET -10.782232 -3.815245 -6.585091
          CHANNELS 3 Zrotation Xrotation Yrotation
          End Site
          {
            OFFSET 0 0 0
          }
        }
      }
    }
  }
}
MOTION
Frames: 5
Frame Time: 0.033333
95.687052 81.312666 348.424163 0.000000 0.000000 72.970452 -0.000000 0.000000 -72.970452 -0.000000 0.000000 0.000000 -0.000000 0.000000 0.000000 0.000000 0.000000 0.000000 -0.000000 0.000000 0.000000 -0.000000 0.000000 0.000000 -0.000000 0.000000 0.000000 -0.000000 0.000000 0.000000 0.000000 0.000000 0.000000 0.000000 0.000000 0.000000 -0.000000 0.000000 0.000000 -0.000000 0.000000 0.000000 -0.000000 0.000000 0.000000 -0.000000 0.000000 0.000000 0.000000 0.000000 0.000000 0.000000 0.000000 0.000000 -0.000000 0.000000 -72.970452 -0.000000 0.000000 0.000000 -0.000000 0.000000 0.000000 0.000000 0.000000 0.000000 -0.000000 0.000000 -72.970452 -0.000000 0.000000 0.000000 -0.000000 0.000000 0.000000 0.000000 0.000000 0.000000
95.621720 80.852790 348.439330 -0.129695 -0.019309 73.194838 0.055982 -0.118574 -73.194802 -0.000000 0.000000 0.000000 -0.000000 0.000000 0.000000 0.000000 0.000000 0.000000 -0.000000 0.000000 0.000000 -0.635476 1.109438 -0.440865 -0.041178 0.038316 -0.024307 0.685786 -1.142469 0.477995 0.000000 0.000000 0.000000 0.000000 0.000000 0.000000 -0.000000 0.000000 0.000000 -0.000000 0.000000 0.000000 -0.000000 0.000000 0.000000 0.807055 0.154019 0.332890 0.000000 0.000000 0.000000 0.000000 0.000000 0.000000 1.801626 -0.682525 -73.199754 -1.608071 -2.589139 -0.468535 -0.794729 -0.009870 1.971917 0.000000 0.000000 0.000000 0.055982 -0.118574 -73.194802 -0.000000 0.000000 0.000000 -0.000000 0.000000 0.000000 0.000000 0.000000 0.000000
95.576175 80.475253 348.446881 -0.228123 -0.029278 73.376931 0.093315 -0.210214 -73.376818 -0.000000 0.000000 0.000000 -0.000000 0.000000 0.000000 0.000000 0.000000 0.000000 -0.694242 -0.994162 0.135205 -0.522140 3.160784 -0.987547 -0.080233 0.076432 -0.048723 1.338899 -2.221555 0.958532 0.000000 0.000000 0.000000 0.000000 0.000000 0.000000 0.743756 -0.337352 0.034175 -1.788685 0.445768 -0.519619 1.046037 -0.098445 0.497870 1.421138 0.371274 0.559413 0.000000 0.000000 0.000000 0.000000 0.000000 0.000000 3.146754 -1.237443 -73.366383 -2.889387 -4.527023 -0.873654 -1.471779 0.117596 3.641125 0.000000 0.000000 0.000000 0.093315 -0.210214 -73.376818 -0.000000 0.000000 0.000000 -0.000000 0.000000 0.000000 0.000000 0.000000 0.000000
95.550416 80.180056 348.446816 -0.296600 -0.030190 73.518399 0.113098 -0.275848 -73.518205 -0.000000 0.000000 0.000000 -0.000000 0.000000 0.000000 0.000000 0.000000 0.000000 -0.986981 -1.311955 0.171364 -0.765386 4.480616 -1.417346 -0.116928 0.113967 -0.073043 1.957955 -3.236650 1.439225 0.000000 0.000000 0.000000 0.000000 0.000000 0.000000 0.981881 -0.501324 0.076118 -2.212521 0.531682 -0.636726 0.478631 -0.329218 0.378327 2.577082 0.965123 0.858944 0.000000 0.000000 0.000000 0.000000 0.000000 0.000000 4.037171 -1.658166 -73.484908 -3.836478 -5.812298 -1.178367 -2.007454 0.463475 4.945536 0.000000 0.000000 0.000000 0.113098 -0.275848 -73.518205 -0.017421 -1.034828 -0.218438 0.013478 1.034887 0.218159 0.000000 0.000000 0.000000
95.544444 79.967197 348.439135 -0.336068 -0.022218 73.620353 0.116088 -0.316163 -73.620098 -0.000000 0.000000 0.000000 -0.128670 -0.801449 -0.287725 0.000000 0.000000 0.000000 -1.243564 -1.509474 0.188192 -1.000015 5.624010 -1.810872 -0.151064 0.150584 -0.097084 2.541657 -4.187524 1.917839 0.000000 0.000000 0.000000 0.000000 0.000000 0.000000 1.127376 -0.660433 0.133850 -2.319941 0.522582 -0.662293 -0.205608 0.357765 0.377815 3.395518 0.782591 0.852277 0.000000 0.000000 0.000000 0.000000 0.000000 0.000000 4.475397 -1.940831 -73.565779 -4.442566 -6.446647 -1.355890 -2.382884 1.082032 5.836291 0.000000 0.000000 0.000000 0.116088 -0.316163 -73.620098 -0.035391 -1.263891 -0.268728 0.029471 1.264043 0.268013 0.000000 0.000000 0.000000
